# xmcd
# 
# Track frame offsets:
#     150
#     17260
#     36945
#     48450
#     63275
#     68747
#     88577
#     106195
#     118290
#     128400
#     145187
#     158882
# 
# Disc length: 2326
# 
# Revision: 3
# Processed by: cddbd v1.5.2PL0 Copyright (c) Steve Scherf et al.
# Submitted via: fre:ac v1.0.31
# 
DISCID=9809140c
DTITLE=Christmas - Carolina Christmas
DYEAR=2005
DGENRE=Christmas
TTITLE0=White Christmas
TTITLE1=Christmas in Carolina
TTITLE2=I'll Be Home for Christmas
TTITLE3=Have Yourself a Merry Little Christmas
TTITLE4=Let It Snow! Let It Snow! Let It Snow!
TTITLE5=Silent Night
TTITLE6=Snowfall in Georgia
TTITLE7=My Christmas in Custody
TTITLE8=Jingle Bells
TTITLE9=Merry Christmas Baby
TTITLE10=Leave the Christmas Lights On
TTITLE11='Twas the Night Before Christmas
EXTD=uploaded by HOWIE
EXTT0=
EXTT1=
EXTT2=
EXTT3=
EXTT4=
EXTT5=
EXTT6=
EXTT7=
EXTT8=
EXTT9=
EXTT10=
EXTT11=
PLAYORDER=
